<?xml version="1.0" encoding="UTF-8" standalone="no"?>
<!DOCTYPE svg PUBLIC "-//W3C//DTD SVG 1.1//EN" "http://www.w3.org/Graphics/SVG/1.1/DTD/svg11.dtd">
<svg width="100%" height="100%" viewBox="0 0 1183 837" version="1.1" xmlns="http://www.w3.org/2000/svg" xmlns:xlink="http://www.w3.org/1999/xlink" xml:space="preserve" xmlns:serif="http://www.serif.com/" style="fill-rule:evenodd;clip-rule:evenodd;stroke-linejoin:round;stroke-miterlimit:2;">
    <g transform="matrix(2.921138,0,0,2.921138,-906.162355,-402.065325)">
        <path d="M546.853,317.203C545.934,312.041 548.283,291.435 545.489,290.531C543.756,289.971 421.203,290.938 419.914,290.022C419.012,289.382 414.079,254.456 444.795,233.967C462.372,222.241 466.207,225.176 567.503,224.812C568.153,224.81 574.998,224.786 575.602,225.402C578.034,227.886 575.148,237.339 595.696,249.157C629.605,268.659 629.2,271.657 656.496,272.659C659.875,272.783 658.705,277.318 658.866,297.5C658.93,305.65 654.697,299.221 647.318,295.869C618.726,282.879 574.534,283.693 548.563,316.604C548.473,316.717 548.437,316.648 546.853,317.203Z" style="fill:rgb(193,255,0);stroke:rgb(193,255,0);stroke-width:0.34px;"/>
        <path d="M594.858,226.298C592.788,222.495 591.88,139.286 596.584,137.894C601.52,136.434 615.807,154.578 623.831,161.071C627.697,164.198 640.606,152.359 677.549,161.304C681.802,162.334 689.631,155.179 696.742,147.955C697.783,146.897 698.809,145.771 699.806,144.67C703.314,140.794 706.465,137.229 708.67,138.057C712.163,139.367 711.749,140.676 711.722,190.5C711.703,223.465 713.091,226.073 705.203,231.008C666.844,255.003 659.265,257.536 643.543,254.25C629.717,251.359 596.745,229.765 594.858,226.298Z" style="fill:rgb(193,255,0);stroke:rgb(193,255,0);stroke-width:0.34px;"/>
        <path d="M393.031,389.549C395.347,403.569 407.062,393.677 407.135,399.535C407.39,420.039 407.753,420.261 406.549,421.547C405.028,423.173 361.09,432.655 360.871,387.5C360.818,376.459 361.129,376.472 360.889,249.494C360.882,245.674 360.827,216.247 334.445,209.728C329.124,208.414 310.974,209.692 310.391,192.499C309.298,160.265 387.833,178.497 392.129,240.522C393.169,255.531 391.605,377.245 393.031,389.549Z" style="fill:rgb(193,255,0);stroke:rgb(193,255,0);stroke-width:0.34px;"/>
        <path d="M419.935,383.435C419.319,374.268 419.208,374.31 419.227,352.498C419.262,310.485 419.043,310.469 419.444,309.474C420.22,307.551 448.566,308.384 449.143,308.868C450.609,310.097 449.108,365.505 450.15,373.546C453.55,399.771 475.791,396.238 479.456,395.327C505.289,388.908 497.447,359.612 498.742,310.52C498.825,307.365 508.106,308.444 508.5,308.444C525.668,308.457 529.246,307.257 529.258,311.5C529.282,320.218 529.557,418.206 529.281,420.476C529.031,422.541 527.999,422.249 503.503,422.215C495.819,422.204 504.261,403.277 497.292,411.283C486.661,423.497 464.11,426.214 450.437,421.685C424.665,413.148 422.025,393.72 419.935,383.435Z" style="fill:rgb(193,255,0);stroke:rgb(193,255,0);stroke-width:0.34px;"/>
        <path d="M581.063,368.528C583.86,398.215 618.389,409.682 636.655,382.615C638.135,380.422 638.874,381.864 652.226,388.944C661.546,393.887 661.494,394.59 661.426,395.49C660.895,402.581 636.474,431.434 594.563,422.164C567.707,416.225 540.843,388.087 552.343,346.456C554.65,338.104 573.674,296.19 629.45,308.705C647.258,312.701 665.279,332.632 660.179,336.069C658.159,337.43 648.486,342.802 640.535,347.558C634.43,351.209 636.625,339.325 619.431,333.714C612.818,331.556 579.58,329.994 581.063,368.528Z" style="fill:rgb(193,255,0);stroke:rgb(193,255,0);stroke-width:0.34px;"/>
        <path d="M687.502,422.208C685.52,422.053 683.521,422.321 681.539,422.166C679.365,421.996 679.677,420.772 679.714,383.501C679.787,310.113 679.108,308.566 681.497,308.474C709.417,307.401 710.411,308.144 710.718,310.467C710.793,311.032 710.732,419.494 710.678,420.534C710.576,422.5 709.578,422.178 687.502,422.208Z" style="fill:rgb(193,255,0);stroke:rgb(193,255,0);stroke-width:0.34px;"/>
        <path d="M676.656,280.474C676.615,279.815 676.478,279.164 676.437,278.505C674.922,253.88 703.813,253.936 711.219,265.685C727.019,290.749 684.504,308.545 676.656,280.474Z" style="fill:rgb(193,255,0);stroke:rgb(193,255,0);stroke-width:0.34px;"/>
    </g>
</svg>
